<svg width="20" height="20" viewBox="0 0 20 20" fill="none" xmlns="http://www.w3.org/2000/svg">
<path d="M10 10C10.9205 10 11.6667 9.25381 11.6667 8.33333C11.6667 7.41286 10.9205 6.66667 10 6.66667C9.07955 6.66667 8.33335 7.41286 8.33335 8.33333C8.33335 9.25381 9.07955 10 10 10ZM10 10C8.15907 10 6.66669 11.4924 6.66669 13.3333M10 10C11.841 10 13.3334 11.4924 13.3334 13.3333M9.16669 2.5H10.8334C14.9755 2.5 18.3334 5.85786 18.3334 10C18.3334 14.1421 14.9755 17.5 10.8334 17.5H5.00002C3.15907 17.5 1.66669 16.0076 1.66669 14.1667V10C1.66669 5.85786 5.02455 2.5 9.16669 2.5Z" stroke="#0F0F0F" stroke-width="1.5" stroke-linecap="round"/>
</svg>
