<svg width="37" height="28" viewBox="0 0 37 28" fill="none" xmlns="http://www.w3.org/2000/svg">
<path d="M28.1788 12.2407C30.8493 12.2407 33.0157 10.0758 33.0157 7.40524C33.0157 4.73469 30.8493 2.56982 28.1788 2.56982" stroke="#9C9C9C" stroke-width="2" stroke-linecap="round" stroke-linejoin="round"/>
<path d="M30.4024 17.4956C31.1999 17.5506 31.9928 17.6637 32.7735 17.8394C33.8582 18.0517 35.163 18.4963 35.6274 19.4695C35.9238 20.0928 35.9238 20.8185 35.6274 21.4434C35.1645 22.4166 33.8582 22.8596 32.7735 23.0827" stroke="#9C9C9C" stroke-width="2" stroke-linecap="round" stroke-linejoin="round"/>
<path d="M9.33725 12.2407C6.66669 12.2407 4.50031 10.0758 4.50031 7.40524C4.50031 4.73469 6.66669 2.56982 9.33725 2.56982" stroke="#9C9C9C" stroke-width="2" stroke-linecap="round" stroke-linejoin="round"/>
<path d="M7.1136 17.4956C6.3161 17.5506 5.52318 17.6637 4.74249 17.8394C3.65776 18.0517 2.35304 18.4963 1.89012 19.4695C1.59221 20.0928 1.59221 20.8185 1.89012 21.4434C2.35151 22.4166 3.65776 22.8596 4.74249 23.0827" stroke="#9C9C9C" stroke-width="2" stroke-linecap="round" stroke-linejoin="round"/>
<path fill-rule="evenodd" clip-rule="evenodd" d="M18.7502 18.5366C24.1616 18.5366 28.7846 19.3555 28.7846 22.6326C28.7846 25.9081 24.1921 26.7576 18.7502 26.7576C13.3373 26.7576 8.71576 25.9387 8.71576 22.6616C8.71576 19.3845 13.3083 18.5366 18.7502 18.5366Z" stroke="#9C9C9C" stroke-width="2" stroke-linecap="round" stroke-linejoin="round"/>
<path fill-rule="evenodd" clip-rule="evenodd" d="M18.7502 13.8624C15.1814 13.8624 12.3198 11.0008 12.3198 7.43042C12.3198 3.86153 15.1814 1 18.7502 1C22.3191 1 25.1807 3.86153 25.1807 7.43042C25.1807 11.0008 22.3191 13.8624 18.7502 13.8624Z" stroke="#9C9C9C" stroke-width="2" stroke-linecap="round" stroke-linejoin="round"/>
</svg>
