<svg width="20" height="20" viewBox="0 0 20 20" fill="none" xmlns="http://www.w3.org/2000/svg">
<path d="M10.8334 16.6667H5.66669C3.45755 16.6667 1.66669 14.8758 1.66669 12.6667V7.33333C1.66669 5.12419 3.45755 3.33333 5.66669 3.33333H14.3334C16.5425 3.33333 18.3334 5.12419 18.3334 7.33333V9.58333" stroke="#0F0F0F" stroke-width="1.5" stroke-linecap="round"/>
<ellipse cx="0.833333" cy="0.833333" rx="0.833333" ry="0.833333" transform="matrix(1 0 0 -1 4.16669 7.5)" fill="#0F0F0F"/>
<circle cx="1.66667" cy="1.66667" r="1.66667" transform="matrix(1 0 0 -1 8.33331 11.6667)" stroke="#0F0F0F" stroke-width="1.5"/>
<circle cx="1.66667" cy="1.66667" r="1.66667" transform="matrix(1 0 0 -1 14.1667 15)" stroke="#0F0F0F" stroke-width="1.5"/>
<path d="M18.3333 16.6667C17.8343 15.6703 16.9016 15 15.8333 15C14.765 15 13.8323 15.6703 13.3333 16.6667" stroke="#0F0F0F" stroke-width="1.5" stroke-linecap="round"/>
</svg>
