<svg width="20" height="20" viewBox="0 0 20 20" fill="none" xmlns="http://www.w3.org/2000/svg">
<ellipse cx="8.33333" cy="14.5833" rx="5.83333" ry="2.91667" stroke="#0F0F0F" stroke-width="1.5" stroke-linejoin="round"/>
<circle cx="8.33333" cy="5.83333" r="3.33333" stroke="#0F0F0F" stroke-width="1.5" stroke-linejoin="round"/>
<path fill-rule="evenodd" clip-rule="evenodd" d="M12.6175 8.41279C12.3097 8.9228 11.9135 9.3734 11.45 9.74333C11.7794 9.8557 12.1326 9.91667 12.5 9.91667C14.2949 9.91667 15.75 8.46159 15.75 6.66667C15.75 4.94413 14.4099 3.53459 12.7154 3.42369C12.9969 3.93446 13.1916 4.49972 13.2799 5.09962C13.8549 5.38638 14.25 5.98039 14.25 6.66667C14.25 7.59369 13.5292 8.35236 12.6175 8.41279Z" fill="#0F0F0F"/>
<path fill-rule="evenodd" clip-rule="evenodd" d="M15.3242 16.2466C15.6529 15.731 15.8333 15.17 15.8333 14.5833C15.8333 14.5536 15.8329 14.524 15.8319 14.4945C16.1844 14.3391 16.4303 14.1748 16.5807 14.0266C16.7403 13.8694 16.75 13.7764 16.75 13.75C16.75 13.7236 16.7403 13.6306 16.5807 13.4734C16.4185 13.3135 16.1452 13.1351 15.7471 12.9692C15.5898 12.9036 15.4185 12.8424 15.2348 12.7862C14.7162 12.0433 13.8858 11.4012 12.844 10.9212C14.1673 10.9565 15.388 11.1946 16.324 11.5846C16.8306 11.7957 17.2896 12.0661 17.6334 12.4048C17.9798 12.746 18.25 13.2011 18.25 13.75C18.25 14.2989 17.9798 14.754 17.6334 15.0952C17.2896 15.4339 16.8306 15.7043 16.324 15.9154C16.0189 16.0426 15.6835 16.1536 15.3242 16.2466Z" fill="#0F0F0F"/>
</svg>
