<svg width="20" height="20" viewBox="0 0 20 20" fill="none" xmlns="http://www.w3.org/2000/svg">
<path d="M9.99998 8.6457V17.8812M8.33331 4.6126C8.8236 4.32899 9.39283 4.16666 9.99998 4.16666C10.6071 4.16666 11.1764 4.32899 11.6666 4.6126M6.66665 2.71224C7.61151 2.05318 8.76061 1.66666 9.99998 1.66666C11.2394 1.66666 12.3885 2.05318 13.3333 2.71224M4.66287 6.67397C6.14178 6.83644 8.12873 7.27354 9.54453 8.23806C9.81663 8.42344 10.1833 8.42344 10.4554 8.23806C11.8712 7.27354 13.8582 6.83644 15.3371 6.67397C16.069 6.59356 16.6666 7.18779 16.6666 7.92095V15.2222C16.6666 15.9553 16.069 16.5498 15.3371 16.6302C13.8582 16.7927 11.8712 17.2298 10.4554 18.1943C10.1833 18.3797 9.81663 18.3797 9.54453 18.1943C8.12873 17.2298 6.14178 16.7927 4.66287 16.6302C3.93093 16.5498 3.33331 15.9553 3.33331 15.2222V7.92095C3.33331 7.18779 3.93093 6.59356 4.66287 6.67397Z" stroke="#0F0F0F" stroke-width="1.5" stroke-linecap="round"/>
</svg>
