<svg width="33" height="33" viewBox="0 0 33 33" fill="none" xmlns="http://www.w3.org/2000/svg">
<path d="M1.09033 22.2109C1.09033 22.2109 1.327 25.1076 1.382 26.0209C1.45533 27.2459 1.92867 28.6143 2.71867 29.5643C3.83367 30.9109 5.147 31.3859 6.90033 31.3893C8.962 31.3926 23.9537 31.3926 26.0153 31.3893C27.7687 31.3859 29.082 30.9109 30.197 29.5643C30.987 28.6143 31.4603 27.2459 31.5353 26.0209C31.5887 25.1076 31.8253 22.2109 31.8253 22.2109" stroke="#9C9C9C" stroke-width="2" stroke-linecap="round" stroke-linejoin="round"/>
<path d="M10.5768 5.29833V4.68C10.5768 2.64667 12.2234 1 14.2568 1H18.5601C20.5918 1 22.2401 2.64667 22.2401 4.68L22.2418 5.29833" stroke="#9C9C9C" stroke-width="2" stroke-linecap="round" stroke-linejoin="round"/>
<path d="M16.4085 24.2128V22.0562" stroke="#9C9C9C" stroke-width="2" stroke-linecap="round" stroke-linejoin="round"/>
<path fill-rule="evenodd" clip-rule="evenodd" d="M1 10.3974V16.1758C4.19667 18.2841 8.02667 19.7608 12.23 20.3458C12.7333 18.5108 14.3883 17.1658 16.4 17.1658C18.38 17.1658 20.0683 18.5108 20.5383 20.3624C24.7583 19.7774 28.6033 18.3008 31.8167 16.1758V10.3974C31.8167 7.57411 29.545 5.30078 26.7217 5.30078H6.11167C3.28833 5.30078 1 7.57411 1 10.3974Z" stroke="#9C9C9C" stroke-width="2" stroke-linecap="round" stroke-linejoin="round"/>
</svg>
