<svg width="20" height="20" viewBox="0 0 20 20" fill="none" xmlns="http://www.w3.org/2000/svg">
<path d="M11.8001 13.2735L13.5892 16.3724C13.9344 16.9702 13.7296 17.7347 13.1317 18.0799C12.5338 18.4251 11.7693 18.2202 11.4242 17.6224L9.21288 13.7923M16.2119 4.02509L16.517 2.88674M17.8786 6.91185L19.017 7.21687M6.74841 14.3002L15.5973 12.274C16.6904 12.0237 17.2294 10.7871 16.6687 9.81603L13.092 3.62094C12.5313 2.64983 11.1909 2.49833 10.4276 3.3198L4.24841 9.97009L6.74841 14.3002ZM4.45676 10.3309L6.5401 13.9394C6.88527 14.5372 6.68043 15.3017 6.08257 15.6469C5.4847 15.9921 4.72021 15.7872 4.37503 15.1894L2.2917 11.5809C1.94652 10.983 2.15137 10.2186 2.74923 9.87338C3.3471 9.5282 4.11159 9.73305 4.45676 10.3309Z" stroke="#0F0F0F" stroke-width="1.5" stroke-linecap="round" stroke-linejoin="round"/>
</svg>
