<svg width="20" height="20" viewBox="0 0 20 20" fill="none" xmlns="http://www.w3.org/2000/svg">
<path d="M9.99992 8.6457V17.8812M8.33325 4.6126C8.82354 4.32899 9.39277 4.16666 9.99992 4.16666C10.6071 4.16666 11.1763 4.32899 11.6666 4.6126M6.66659 2.71224C7.61145 2.05318 8.76055 1.66666 9.99992 1.66666C11.2393 1.66666 12.3884 2.05318 13.3333 2.71224M4.6628 6.67397C6.14172 6.83644 8.12867 7.27354 9.54447 8.23806C9.81657 8.42344 10.1833 8.42344 10.4554 8.23806C11.8712 7.27354 13.8581 6.83644 15.337 6.67397C16.069 6.59356 16.6666 7.18779 16.6666 7.92095V15.2222C16.6666 15.9553 16.069 16.5498 15.337 16.6302C13.8581 16.7927 11.8712 17.2298 10.4554 18.1943C10.1833 18.3797 9.81657 18.3797 9.54447 18.1943C8.12867 17.2298 6.14172 16.7927 4.6628 16.6302C3.93087 16.5498 3.33325 15.9553 3.33325 15.2222V7.92095C3.33325 7.18779 3.93087 6.59356 4.6628 6.67397Z" stroke="#0F0F0F" stroke-width="1.5" stroke-linecap="round"/>
</svg>
