<svg width="20" height="20" viewBox="0 0 20 20" fill="none" xmlns="http://www.w3.org/2000/svg">
<g clip-path="url(#clip0_531_5024)">
<path d="M2.41675 1.66667C2.41675 1.25245 2.08096 0.916667 1.66675 0.916667C1.25253 0.916667 0.916748 1.25245 0.916748 1.66667H2.41675ZM18.3334 19.0833C18.7476 19.0833 19.0834 18.7475 19.0834 18.3333C19.0834 17.9191 18.7476 17.5833 18.3334 17.5833V19.0833ZM12.9167 6.75C12.5025 6.75 12.1667 7.08579 12.1667 7.5C12.1667 7.91421 12.5025 8.25 12.9167 8.25V6.75ZM15.2304 7.96066L14.5596 8.29607V8.29607L15.2304 7.96066ZM15.1626 9.50208C15.3478 9.87256 15.7983 10.0227 16.1688 9.83749C16.5393 9.65225 16.6895 9.20174 16.5042 8.83126L15.1626 9.50208ZM15.2106 8.32786L15.6218 7.70063L14.3674 6.87824L13.9562 7.50548L15.2106 8.32786ZM12.3038 11.394L11.6765 10.9829L12.3038 11.394ZM10.8939 11.3687L10.2523 11.7571L10.8939 11.3687ZM9.30379 8.74172L8.66218 9.1301L9.30379 8.74172ZM7.85879 8.77517L7.19989 8.4169L7.85879 8.77517ZM5.17452 12.1417C4.97665 12.5056 5.11125 12.961 5.47514 13.1589C5.83904 13.3568 6.29444 13.2222 6.49231 12.8583L5.17452 12.1417ZM0.916748 1.66667V15H2.41675V1.66667H0.916748ZM5.00008 19.0833H18.3334V17.5833H5.00008V19.0833ZM0.916748 15C0.916748 17.2552 2.74492 19.0833 5.00008 19.0833V17.5833C3.57335 17.5833 2.41675 16.4267 2.41675 15H0.916748ZM12.9167 8.25H14.4851V6.75H12.9167V8.25ZM14.5596 8.29607L15.1626 9.50208L16.5042 8.83126L15.9012 7.62525L14.5596 8.29607ZM14.4851 8.25C14.5166 8.25 14.5455 8.26783 14.5596 8.29607L15.9012 7.62525C15.633 7.08884 15.0848 6.75 14.4851 6.75V8.25ZM13.9562 7.50548L11.6765 10.9829L12.931 11.8052L15.2106 8.32786L13.9562 7.50548ZM11.5356 10.9803L9.9454 8.35334L8.66218 9.1301L10.2523 11.7571L11.5356 10.9803ZM7.19989 8.4169L5.17452 12.1417L6.49231 12.8583L8.51768 9.13344L7.19989 8.4169ZM9.9454 8.35334C9.31247 7.30772 7.78376 7.34311 7.19989 8.4169L8.51768 9.13344C8.52818 9.11413 8.5385 9.10593 8.54674 9.10111C8.55697 9.0951 8.57152 9.09034 8.58896 9.08994C8.6064 9.08954 8.62116 9.09362 8.63166 9.09914C8.64011 9.10358 8.6508 9.11129 8.66218 9.1301L9.9454 8.35334ZM11.6765 10.9829C11.6429 11.0341 11.5673 11.0328 11.5356 10.9803L10.2523 11.7571C10.8556 12.7537 12.2923 12.7795 12.931 11.8052L11.6765 10.9829Z" fill="#0F0F0F"/>
</g>
<defs>
<clipPath id="clip0_531_5024">
<rect width="20" height="20" fill="white"/>
</clipPath>
</defs>
</svg>
