<svg width="20" height="20" viewBox="0 0 20 20" fill="none" xmlns="http://www.w3.org/2000/svg">
<path d="M12.9929 14.1944H16.6665C17.587 14.1944 18.3332 13.3711 18.3332 12.3555V7.14203C18.3332 6.44551 17.9765 5.80878 17.4119 5.49729L15.7037 4.55494C15.2408 4.2996 14.7304 4.16667 14.2129 4.16667H12.4353C11.4226 4.16667 10.4649 4.67453 9.83236 5.54694L9.81143 5.5758M9.81143 5.5758L8.19527 7.80474C7.79936 8.35076 7.83887 9.13792 8.28702 9.63237C8.77274 10.1683 9.56026 10.1683 10.046 9.63237L11.2253 8.33118L13.1344 12.1927C13.6567 13.2492 13.1336 14.5654 12.0754 14.8573L9.13392 15.6686C8.0738 15.961 6.95604 15.8622 5.95165 15.3873L2.67664 13.8387C2.06383 13.5489 1.6665 12.8841 1.6665 12.1485V7.14203C1.6665 6.44551 2.02317 5.80878 2.58781 5.49729L4.29602 4.55494C4.75887 4.2996 5.26925 4.16667 5.78673 4.16667H7.18773C8.22186 4.16667 9.18597 4.69502 9.81143 5.5758Z" stroke="#0F0F0F" stroke-width="1.5" stroke-linecap="round" stroke-linejoin="round"/>
</svg>
