<svg width="20" height="20" viewBox="0 0 20 20" fill="none" xmlns="http://www.w3.org/2000/svg">
<path d="M16.6665 4.16667V8.75" stroke="#0F0F0F" stroke-width="1.5" stroke-linecap="round"/>
<path d="M14.0835 5.83333V5.08333H12.5835V5.83333H14.0835ZM7.41683 5.83333V5.08333H5.91683V5.83333H7.41683ZM10.0002 1.66667L10.2635 0.96442C10.0937 0.900749 9.90661 0.900749 9.73682 0.96442L10.0002 1.66667ZM3.3335 4.16667L3.07015 3.46442C2.77743 3.57419 2.5835 3.85403 2.5835 4.16667C2.5835 4.4793 2.77743 4.75914 3.07015 4.86891L3.3335 4.16667ZM10.0002 6.66667L9.73682 7.36891C9.90661 7.43258 10.0937 7.43258 10.2635 7.36891L10.0002 6.66667ZM16.6668 4.16667L16.9302 4.86891C17.2229 4.75914 17.4168 4.4793 17.4168 4.16667C17.4168 3.85403 17.2229 3.57419 16.9302 3.46442L16.6668 4.16667ZM10.5927 14.1716L10.0594 13.6442L10.0594 13.6442L10.5927 14.1716ZM11.9165 12.833L12.4497 13.3604L12.4497 13.3604L11.9165 12.833ZM12.6985 12.6201L12.9101 11.9006L12.6985 12.6201ZM8.08387 12.833L8.61714 12.3056L8.08387 12.833ZM9.40764 14.1716L9.94091 13.6442L9.40764 14.1716ZM7.30183 12.6201L7.09023 11.9006H7.09023L7.30183 12.6201ZM15.9168 18.3333C15.9168 18.7475 16.2526 19.0833 16.6668 19.0833C17.081 19.0833 17.4168 18.7475 17.4168 18.3333H15.9168ZM2.5835 18.3333C2.5835 18.7475 2.91928 19.0833 3.3335 19.0833C3.74771 19.0833 4.0835 18.7475 4.0835 18.3333H2.5835ZM12.5835 5.83333V7.5H14.0835V5.83333H12.5835ZM7.41683 7.5V5.83333H5.91683V7.5H7.41683ZM10.0002 10.0833C8.57343 10.0833 7.41683 8.92674 7.41683 7.5H5.91683C5.91683 9.75516 7.745 11.5833 10.0002 11.5833V10.0833ZM12.5835 7.5C12.5835 8.92674 11.4269 10.0833 10.0002 10.0833V11.5833C12.2553 11.5833 14.0835 9.75516 14.0835 7.5H12.5835ZM9.73682 0.96442L3.07015 3.46442L3.59684 4.86891L10.2635 2.36891L9.73682 0.96442ZM10.2635 7.36891L16.9302 4.86891L16.4035 3.46442L9.73682 5.96442L10.2635 7.36891ZM9.73682 2.36891L16.4035 4.86891L16.9302 3.46442L10.2635 0.96442L9.73682 2.36891ZM10.2635 5.96442L3.59684 3.46442L3.07015 4.86891L9.73682 7.36891L10.2635 5.96442ZM11.126 14.6989L12.4497 13.3604L11.3832 12.3056L10.0594 13.6442L11.126 14.6989ZM12.4869 13.3396C14.6923 13.9882 15.9168 15.3543 15.9168 16.6667H17.4168C17.4168 14.3671 15.3799 12.6269 12.9101 11.9006L12.4869 13.3396ZM7.5506 13.3604L8.87437 14.6989L9.94091 13.6442L8.61714 12.3056L7.5506 13.3604ZM4.0835 16.6667C4.0835 15.3543 5.30799 13.9882 7.51342 13.3396L7.09023 11.9006C4.62044 12.6269 2.5835 14.3671 2.5835 16.6667H4.0835ZM15.9168 16.6667V18.3333H17.4168V16.6667H15.9168ZM2.5835 16.6667V18.3333H4.0835V16.6667H2.5835ZM8.61714 12.3056C8.23459 11.9188 7.65509 11.7345 7.09023 11.9006L7.51342 13.3396C7.51345 13.3396 7.51336 13.3397 7.51322 13.3397C7.5131 13.3397 7.51315 13.3397 7.51344 13.3397C7.51398 13.3397 7.51602 13.3398 7.51953 13.3407C7.52703 13.3428 7.53883 13.3485 7.5506 13.3604L8.61714 12.3056ZM12.4497 13.3604C12.4615 13.3485 12.4733 13.3428 12.4808 13.3407C12.4843 13.3398 12.4863 13.3397 12.4869 13.3397C12.4872 13.3397 12.4872 13.3397 12.4871 13.3397C12.487 13.3397 12.4869 13.3396 12.4869 13.3396L12.9101 11.9006C12.3452 11.7345 11.7657 11.9188 11.3832 12.3056L12.4497 13.3604ZM10.0594 13.6442C10.0268 13.6772 9.97353 13.6772 9.94091 13.6442L8.87437 14.6989C9.49409 15.3256 10.5062 15.3256 11.126 14.6989L10.0594 13.6442Z" fill="#0F0F0F"/>
</svg>
