<svg width="20" height="20" viewBox="0 0 20 20" fill="none" xmlns="http://www.w3.org/2000/svg">
<path d="M1.6665 6.66667H3.33317L8.55171 8.94978C9.35324 9.30045 9.72182 10.232 9.37719 11.0362V11.0362C9.03071 11.8446 8.09446 12.2191 7.28602 11.8727L5.83317 11.25" stroke="#0F0F0F" stroke-width="1.5" stroke-linecap="round" stroke-linejoin="round"/>
<path d="M2.00191 13.4958C1.63143 13.3106 1.18093 13.4608 0.995683 13.8313C0.810442 14.2017 0.96061 14.6522 1.33109 14.8375L2.00191 13.4958ZM9.50191 10.9958L8.83109 10.6604L8.16027 12.0021L8.83109 12.3375L9.50191 10.9958ZM15.9165 15C15.9165 15.4142 16.2523 15.75 16.6665 15.75C17.0807 15.75 17.4165 15.4142 17.4165 15H15.9165ZM11.233 12.6999L10.8976 13.3707L11.233 12.6999ZM13.9162 14.0833H14.9998V12.5833H13.9162V14.0833ZM14.9998 15.9167H8.55505V17.4167H14.9998V15.9167ZM5.31275 15.1513L2.00191 13.4958L1.33109 14.8375L4.64193 16.4929L5.31275 15.1513ZM11.5684 12.0291L9.50191 10.9958L8.83109 12.3375L10.8976 13.3707L11.5684 12.0291ZM8.55505 15.9167C7.42952 15.9167 6.31945 15.6546 5.31275 15.1513L4.64193 16.4929C5.85691 17.1004 7.19665 17.4167 8.55505 17.4167V15.9167ZM15.9165 15C15.9165 15.5063 15.5061 15.9167 14.9998 15.9167V17.4167C16.3345 17.4167 17.4165 16.3347 17.4165 15H15.9165ZM14.9998 14.0833C15.5061 14.0833 15.9165 14.4937 15.9165 15H17.4165C17.4165 13.6653 16.3345 12.5833 14.9998 12.5833V14.0833ZM13.9162 12.5833C13.1012 12.5833 12.2974 12.3936 11.5684 12.0291L10.8976 13.3707C11.8348 13.8394 12.8683 14.0833 13.9162 14.0833V12.5833Z" fill="#0F0F0F"/>
<circle cx="14.9998" cy="6.66667" r="3.33333" stroke="#0F0F0F" stroke-width="1.5"/>
</svg>
