<svg width="34" height="34" viewBox="0 0 34 34" fill="none" xmlns="http://www.w3.org/2000/svg">
<rect x="0.5" y="0.5" width="33" height="33" rx="12.5" fill="white"/>
<g clip-path="url(#clip0_337_789)">
<path d="M10.0909 22.9997H12.6364V16.8179L9.00003 14.0906V21.9088C9.00003 22.5125 9.48912 22.9997 10.0909 22.9997Z" fill="#4285F4"/>
<path d="M21.3637 22.9997H23.9091C24.5128 22.9997 25 22.5106 25 21.9088V14.0906L21.3637 16.8179" fill="#34A853"/>
<path d="M21.3637 12.0906V16.8179L25 14.0906V12.6361C25 11.287 23.46 10.5179 22.3818 11.327" fill="#FBBC04"/>
<path d="M12.6364 16.8179V12.0906L17 15.3634L21.3637 12.0906V16.8179L17 20.0906" fill="#EA4335"/>
<path d="M9.00003 12.6361V14.0906L12.6364 16.8179V12.0906L11.6182 11.327C10.5382 10.5179 9.00003 11.287 9.00003 12.6361Z" fill="#C5221F"/>
</g>
<rect x="0.5" y="0.5" width="33" height="33" rx="12.5" stroke="#373737"/>
<defs>
<clipPath id="clip0_337_789">
<rect width="16" height="12" fill="white" transform="translate(9.00003 10.9998)"/>
</clipPath>
</defs>
</svg>
