<svg width="82" height="82" viewBox="0 0 82 82" fill="none" xmlns="http://www.w3.org/2000/svg">
<path d="M26.0903 47.2109C26.0903 47.2109 26.327 50.1076 26.382 51.0209C26.4553 52.2459 26.9287 53.6143 27.7187 54.5643C28.8337 55.9109 30.147 56.3859 31.9003 56.3893C33.962 56.3926 48.9537 56.3926 51.0153 56.3893C52.7687 56.3859 54.082 55.9109 55.197 54.5643C55.987 53.6143 56.4603 52.2459 56.5353 51.0209C56.5887 50.1076 56.8253 47.2109 56.8253 47.2109" stroke="#FF6633" stroke-width="2" stroke-linecap="round" stroke-linejoin="round"/>
<path d="M35.5768 30.2983V29.68C35.5768 27.6467 37.2235 26 39.2568 26H43.5602C45.5918 26 47.2402 27.6467 47.2402 29.68L47.2418 30.2983" stroke="#FF6633" stroke-width="2" stroke-linecap="round" stroke-linejoin="round"/>
<path d="M41.4085 49.2128V47.0562" stroke="#FF6633" stroke-width="2" stroke-linecap="round" stroke-linejoin="round"/>
<path fill-rule="evenodd" clip-rule="evenodd" d="M26 35.3974V41.1758C29.1967 43.2841 33.0267 44.7608 37.23 45.3458C37.7333 43.5108 39.3883 42.1658 41.4 42.1658C43.38 42.1658 45.0683 43.5108 45.5383 45.3624C49.7583 44.7774 53.6033 43.3008 56.8167 41.1758V35.3974C56.8167 32.5741 54.545 30.3008 51.7217 30.3008H31.1117C28.2883 30.3008 26 32.5741 26 35.3974Z" stroke="#FF6633" stroke-width="2" stroke-linecap="round" stroke-linejoin="round"/>
</svg>
