<svg width="186" height="20" viewBox="0 0 186 20" fill="none" xmlns="http://www.w3.org/2000/svg">
<g id="Logo Alt 2">
<path d="M9.47639 19.5C7.68105 19.5 6.06354 19.0931 4.62387 18.2793C3.1842 17.4479 2.04941 16.3068 1.21948 14.8561C0.406494 13.4055 0 11.7868 0 10C0 8.21322 0.406494 6.59451 1.21948 5.14385C2.04941 3.6932 3.1842 2.56099 4.62387 1.74721C6.06354 0.915735 7.68105 0.5 9.47639 0.5C11.2548 0.5 12.8638 0.915735 14.3035 1.74721C15.7432 2.56099 16.8695 3.6932 17.6825 5.14385C18.4955 6.57682 18.902 8.19553 18.902 10C18.902 11.8045 18.4955 13.432 17.6825 14.8827C16.8695 16.3156 15.7432 17.4479 14.3035 18.2793C12.8638 19.0931 11.2548 19.5 9.47639 19.5ZM9.47639 17.1383C10.7806 17.1383 11.9492 16.8287 12.9824 16.2095C14.0325 15.5903 14.854 14.7412 15.4468 13.662C16.0565 12.5652 16.3614 11.3445 16.3614 10C16.3614 8.65549 16.0565 7.44367 15.4468 6.36452C14.854 5.26769 14.0325 4.40968 12.9824 3.7905C11.9492 3.17132 10.7806 2.86173 9.47639 2.86173C8.17223 2.86173 6.98662 3.17132 5.91957 3.7905C4.86946 4.40968 4.03954 5.26769 3.42979 6.36452C2.83699 7.44367 2.54059 8.65549 2.54059 10C2.54059 11.3445 2.83699 12.5652 3.42979 13.662C4.03954 14.7412 4.86946 15.5903 5.91957 16.2095C6.98662 16.8287 8.17223 17.1383 9.47639 17.1383Z" fill="white"/>
<path d="M29.8479 11.0349L26.596 14.4846V19.2877H24.0554V0.712289H26.596V11.088L36.2502 0.712289H39.1465L31.5501 9.07123L39.6292 19.2877H36.6567L29.8479 11.0349Z" fill="white"/>
<path d="M46.0259 3.02095H39.9285V0.712289H54.6385V3.02095H48.5411V19.2877H46.0259V3.02095Z" fill="white"/>
<path d="M66.456 19.5C64.6607 19.5 63.0432 19.0931 61.6035 18.2793C60.1638 17.4479 59.029 16.3068 58.1991 14.8561C57.3861 13.4055 56.9796 11.7868 56.9796 10C56.9796 8.21322 57.3861 6.59451 58.1991 5.14385C59.029 3.6932 60.1638 2.56099 61.6035 1.74721C63.0432 0.915735 64.6607 0.5 66.456 0.5C68.2344 0.5 69.8435 0.915735 71.2831 1.74721C72.7228 2.56099 73.8491 3.6932 74.6621 5.14385C75.4751 6.57682 75.8816 8.19553 75.8816 10C75.8816 11.8045 75.4751 13.432 74.6621 14.8827C73.8491 16.3156 72.7228 17.4479 71.2831 18.2793C69.8435 19.0931 68.2344 19.5 66.456 19.5ZM66.456 17.1383C67.7602 17.1383 68.9289 16.8287 69.962 16.2095C71.0121 15.5903 71.8336 14.7412 72.4264 13.662C73.0361 12.5652 73.341 11.3445 73.341 10C73.341 8.65549 73.0361 7.44367 72.4264 6.36452C71.8336 5.26769 71.0121 4.40968 69.962 3.7905C68.9289 3.17132 67.7602 2.86173 66.456 2.86173C65.1519 2.86173 63.9662 3.17132 62.8992 3.7905C61.8491 4.40968 61.0192 5.26769 60.4094 6.36452C59.8166 7.44367 59.5202 8.65549 59.5202 10C59.5202 11.3445 59.8166 12.5652 60.4094 13.662C61.0192 14.7412 61.8491 15.5903 62.8992 16.2095C63.9662 16.8287 65.1519 17.1383 66.456 17.1383Z" fill="white"/>
<path d="M93.3569 9.89386H95.7959V17.1383C94.9151 17.899 93.8904 18.4828 92.7217 18.8897C91.5531 19.2966 90.3336 19.5 89.0633 19.5C87.2679 19.5 85.6504 19.0931 84.2108 18.2793C82.7711 17.4479 81.6363 16.3156 80.8064 14.8827C79.9934 13.432 79.5869 11.8045 79.5869 10C79.5869 8.19553 79.9934 6.56797 80.8064 5.11732C81.6363 3.66667 82.7711 2.53445 84.2108 1.72067C85.6674 0.906889 87.3018 0.5 89.1141 0.5C90.5368 0.5 91.8241 0.747672 92.9758 1.24302C94.1445 1.72067 95.1353 2.4283 95.9483 3.36592L94.3731 5.01117C92.9504 3.57821 91.2313 2.86173 89.2157 2.86173C87.8607 2.86173 86.6413 3.17132 85.5573 3.7905C84.4902 4.39199 83.6518 5.24115 83.0421 6.33799C82.4324 7.41713 82.1275 8.6378 82.1275 10C82.1275 11.3445 82.4324 12.5652 83.0421 13.662C83.6518 14.7412 84.4902 15.5903 85.5573 16.2095C86.6413 16.8287 87.8523 17.1383 89.1903 17.1383C90.7824 17.1383 92.1713 16.7402 93.3569 15.9441V9.89386Z" fill="white"/>
<path d="M113.82 19.2877L109.984 13.5824C109.51 13.6178 109.137 13.6355 108.866 13.6355H104.471V19.2877H101.93V0.712289H108.866C111.17 0.712289 112.982 1.28724 114.303 2.43715C115.624 3.58706 116.285 5.17039 116.285 7.18715C116.285 8.62011 115.946 9.84078 115.268 10.8492C114.591 11.8575 113.626 12.5917 112.372 13.0517L116.59 19.2877H113.82ZM108.79 11.3799C110.399 11.3799 111.627 11.0172 112.474 10.2919C113.321 9.56657 113.744 8.53166 113.744 7.18715C113.744 5.84264 113.321 4.81657 112.474 4.10894C111.627 3.38361 110.399 3.02095 108.79 3.02095H104.471V11.3799H108.79Z" fill="white"/>
<path d="M132.991 14.6439H123.54L121.583 19.2877H118.967L127.02 0.712289H129.535L137.615 19.2877H134.947L132.991 14.6439ZM132.101 12.5209L128.265 3.41899L124.429 12.5209H132.101Z" fill="white"/>
<path d="M158.026 19.2877L158.001 5.75419L151.573 17.0321H150.404L143.977 5.8338V19.2877H141.538V0.712289H143.621L151.04 13.7682L158.356 0.712289H160.44L160.465 19.2877H158.026Z" fill="white"/>
<path d="M183.561 19.2877L183.536 5.75419L177.108 17.0321H175.939L169.512 5.8338V19.2877H167.073V0.712289H169.156L176.574 13.7682L183.891 0.712289H185.975L186 19.2877H183.561Z" fill="white"/>
</g>
</svg>
