<svg width="52" height="52" viewBox="0 0 52 52" fill="none" xmlns="http://www.w3.org/2000/svg">
<path d="M25.9834 38.7496L16.7755 47.9799V35.5121H4.06304L13.393 26.2004C13.3701 26.1646 13.345 26.1303 13.3178 26.0975C12.7575 25.5326 12.1966 24.968 11.6353 24.4038C10.4684 23.2331 9.30164 22.0623 8.13505 20.8913C6.758 19.5269 5.41272 18.1263 4 16.7957C8.23767 16.7839 12.4709 16.7957 16.7091 16.7913C16.6824 12.5256 16.6708 8.2618 16.6744 4C19.7989 7.16204 22.918 10.3246 26.0845 13.4533L35.3447 4.16908V16.7908H47.9223C47.915 16.7736 47.9301 16.8074 47.9223 16.7908C44.8521 19.8675 41.7466 22.9948 38.625 26.123L48 35.5121H35.3437C35.3437 39.7268 35.3544 43.7838 35.351 48M33.389 28.6906V23.5603C31.7905 21.9594 30.1891 20.3565 28.585 18.7516H23.5464L18.6931 23.6211C18.6931 25.2624 18.6989 28.5793 18.6989 28.5793V28.695C18.6989 28.695 21.9568 31.9943 23.5464 33.5346C25.1502 33.5346 28.4863 33.5307 28.4863 33.5307M37.2597 27.4771L35.3447 29.3811V33.5027H43.261L37.2597 27.4771ZM22.6976 16.7932L24.6567 14.8691L18.6813 8.88127V16.7908L22.6976 16.7932ZM14.8375 27.6276L8.92961 33.5518H16.7755V29.5634L14.8375 27.6276ZM16.7267 18.7511H8.86902L14.8111 24.7194L16.7267 22.8007V18.7511ZM27.3888 37.3676L33.39 43.3736V35.5322C32.0745 35.4974 30.7557 35.5248 29.4387 35.5268C29.3224 35.5268 29.1885 35.6248 29.0966 35.7116C28.5308 36.2644 27.9722 36.8299 27.3888 37.3676ZM33.39 16.7908V8.97732L27.5002 14.8348L29.4592 16.7908H33.39ZM43.1667 18.8001H35.3447V22.7537L37.2749 24.7165L43.1667 18.8001ZM18.7302 35.5121V43.2712L18.7468 43.278L24.5975 37.4058L22.705 35.5121H18.7302ZM33.3412 33.5518V31.5159L31.2751 33.5518H33.3412ZM20.6462 18.7511H18.6813V20.7281L20.6462 18.7511ZM20.6672 33.5518L18.7302 31.5728V33.5518H20.6672ZM33.39 18.7511H31.4476L33.39 20.684V18.7511ZM25.5426 16.7418H26.5854C26.4027 16.5609 26.2336 16.3933 26.0552 16.2159L25.5426 16.7418ZM16.2014 26.1372L16.7267 26.7552V25.6177L16.2014 26.1372ZM35.3447 26.5533L35.8607 26.1191C35.6794 25.9231 35.5235 25.7574 35.3466 25.5687L35.3447 26.5533ZM26.4681 35.5121H25.4732L26.0186 35.9831L26.4681 35.5121Z" fill="white"/>
</svg>
