<svg width="32" height="32" viewBox="0 0 32 32" fill="none" xmlns="http://www.w3.org/2000/svg">
<rect width="32" height="32" rx="12" fill="#28A8E9"/>
<path fill-rule="evenodd" clip-rule="evenodd" d="M8.21103 15.308C12.506 13.4368 15.37 12.2031 16.803 11.6071C20.8945 9.90531 21.7446 9.60969 22.2988 9.59993C22.4207 9.59778 22.6932 9.62798 22.8697 9.77122C23.0187 9.89216 23.0597 10.0555 23.0794 10.1702C23.099 10.2849 23.1234 10.5461 23.104 10.7502C22.8823 13.0798 21.9229 18.7332 21.4348 21.3425C21.2283 22.4465 20.8217 22.8167 20.428 22.8529C19.5724 22.9317 18.9227 22.2875 18.0941 21.7443C16.7974 20.8943 16.0648 20.3652 14.8061 19.5357C13.3515 18.5772 14.2945 18.0503 15.1235 17.1893C15.3404 16.964 19.1101 13.5352 19.183 13.2241C19.1922 13.1852 19.2006 13.0402 19.1145 12.9637C19.0283 12.8871 18.9012 12.9133 18.8095 12.9341C18.6794 12.9636 16.6079 14.3328 12.595 17.0416C12.007 17.4454 11.4744 17.6421 10.9973 17.6318C10.4712 17.6204 9.45934 17.3344 8.7071 17.0898C7.78444 16.7899 7.05114 16.6314 7.11499 16.122C7.14825 15.8567 7.5136 15.5854 8.21103 15.308Z" fill="white"/>
</svg>
