<svg width="32" height="32" viewBox="0 0 32 32" fill="none" xmlns="http://www.w3.org/2000/svg">
<rect width="32" height="32" rx="12" fill="#25D366"/>
<g clip-path="url(#clip0_337_771)">
<path fill-rule="evenodd" clip-rule="evenodd" d="M21.6687 10.3362C20.1648 8.83044 18.1647 8.00076 16.0336 8C11.6423 8 8.06838 11.5735 8.06685 15.966C8.06608 17.3702 8.43318 18.7408 9.13031 19.9486L8 24.0772L12.2233 22.9694C13.3868 23.6043 14.697 23.9385 16.0302 23.9389H16.0336C20.4242 23.9389 23.9985 20.365 24 15.9725C24.0008 13.8437 23.173 11.8424 21.6687 10.3366V10.3362ZM16.0336 22.5935H16.0309C14.8429 22.5932 13.6775 22.2738 12.6607 21.6706L12.4189 21.527L9.91262 22.1844L10.5815 19.7408L10.4241 19.4902C9.76135 18.436 9.41107 17.2174 9.41183 15.9664C9.41336 12.3157 12.3837 9.34536 16.0363 9.34536C17.8049 9.34613 19.4673 10.0356 20.7176 11.2874C21.9678 12.5388 22.6558 14.2028 22.655 15.9717C22.6535 19.6228 19.6832 22.5932 16.0336 22.5932V22.5935ZM19.6656 17.6345C19.4665 17.5348 18.4879 17.0535 18.3053 16.9871C18.1227 16.9206 17.9902 16.8874 17.8576 17.0868C17.7251 17.2862 17.3435 17.7346 17.2273 17.8672C17.1112 18.0001 16.9951 18.0165 16.796 17.9168C16.5971 17.8171 15.9557 17.607 15.1952 16.929C14.6035 16.4011 14.2039 15.7494 14.0878 15.55C13.9716 15.3506 14.0756 15.2429 14.1748 15.144C14.2642 15.0546 14.3739 14.9113 14.4736 14.7952C14.5733 14.6791 14.6061 14.5958 14.6726 14.4632C14.7391 14.3303 14.7058 14.2142 14.6562 14.1145C14.6065 14.0148 14.2085 13.035 14.0423 12.6366C13.8807 12.2485 13.7165 12.3012 13.5946 12.2947C13.4785 12.289 13.346 12.2878 13.213 12.2878C13.0801 12.2878 12.8646 12.3375 12.682 12.5369C12.4995 12.7363 11.9853 13.218 11.9853 14.1974C11.9853 15.1768 12.6985 16.1238 12.7982 16.2567C12.8979 16.3896 14.202 18.4 16.1986 19.2626C16.6735 19.4677 17.0444 19.5903 17.3335 19.682C17.8103 19.8336 18.2442 19.8123 18.5872 19.7611C18.9696 19.7038 19.7649 19.2794 19.9307 18.8145C20.0964 18.3496 20.0964 17.9508 20.0468 17.8679C19.9972 17.785 19.8642 17.735 19.6652 17.6353L19.6656 17.6345Z" fill="white"/>
</g>
<defs>
<clipPath id="clip0_337_771">
<rect width="16" height="16.0889" fill="white" transform="translate(8 8)"/>
</clipPath>
</defs>
</svg>
