<svg width="20" height="20" viewBox="0 0 20 20" fill="none" xmlns="http://www.w3.org/2000/svg">
<path fill-rule="evenodd" clip-rule="evenodd" d="M8.23116 12.6718C5.02783 12.6718 2.29199 13.156 2.29199 15.096C2.29199 17.0352 5.01033 17.5377 8.23116 17.5377C11.4345 17.5377 14.1703 17.0527 14.1703 15.1135C14.1703 13.1743 11.452 12.6718 8.23116 12.6718Z" stroke="#0F0F0F" stroke-width="1.5" stroke-linecap="round" stroke-linejoin="round"/>
<path fill-rule="evenodd" clip-rule="evenodd" d="M8.23117 9.90492C10.3445 9.90492 12.0378 8.21075 12.0378 6.09825C12.0378 3.98492 10.3445 2.29158 8.23117 2.29158C6.11867 2.29158 4.4245 3.98492 4.4245 6.09825C4.4245 8.21075 6.11867 9.90492 8.23117 9.90492Z" stroke="#0F0F0F" stroke-width="1.5" stroke-linecap="round" stroke-linejoin="round"/>
<path d="M16.0034 7.22425V10.5659" stroke="#0F0F0F" stroke-width="1.5" stroke-linecap="round" stroke-linejoin="round"/>
<path d="M17.7083 8.895H14.3" stroke="#0F0F0F" stroke-width="1.5" stroke-linecap="round" stroke-linejoin="round"/>
</svg>
