<svg width="20" height="20" viewBox="0 0 20 20" fill="none" xmlns="http://www.w3.org/2000/svg">
<path d="M14.4772 6.81063C16.7488 7.83079 18.3334 10.1343 18.3334 12.8125V15.625C18.3334 16.6605 17.5043 17.5 16.4815 17.5H10.9259C8.50702 17.5 6.44917 15.9347 5.68651 13.75M14.4772 6.81063C13.8926 4.33805 11.6953 2.5 9.0741 2.5H8.14817C4.56855 2.5 1.66669 5.43813 1.66669 9.0625V11.875C1.66669 12.9105 2.49579 13.75 3.51854 13.75H5.68651M14.4772 6.81063C14.5769 7.23229 14.6297 7.6724 14.6297 8.125C14.6297 11.2316 12.1423 13.75 9.0741 13.75H5.68651" stroke="#0F0F0F" stroke-width="1.5" stroke-linejoin="round"/>
</svg>
