<svg width="20" height="20" viewBox="0 0 20 20" fill="none" xmlns="http://www.w3.org/2000/svg">
<ellipse cx="10" cy="13.75" rx="5" ry="2.08333" stroke="#0F0F0F" stroke-width="1.5" stroke-linejoin="round"/>
<ellipse cx="10" cy="6.66667" rx="2.5" ry="2.5" stroke="#0F0F0F" stroke-width="1.5" stroke-linejoin="round"/>
<path fill-rule="evenodd" clip-rule="evenodd" d="M5.62892 10.9185C4.48493 10.9392 3.42303 11.1327 2.60859 11.4585C2.17929 11.6302 1.78154 11.8534 1.47885 12.1397C1.17458 12.4274 0.916748 12.8305 0.916748 13.3333C0.916748 13.8361 1.17458 14.2392 1.47885 14.527C1.78154 14.8132 2.17929 15.0365 2.60859 15.2082C3.0782 15.396 3.63009 15.5399 4.23255 15.632C3.69702 15.1139 3.37585 14.517 3.33733 13.8797C3.27801 13.859 3.22076 13.8375 3.16568 13.8155C2.84096 13.6856 2.62852 13.5497 2.50952 13.4372C2.45658 13.3871 2.43252 13.3524 2.42206 13.3333C2.43252 13.3142 2.45658 13.2796 2.50952 13.2295C2.62852 13.117 2.84096 12.9811 3.16568 12.8512C3.29722 12.7986 3.44113 12.7493 3.59605 12.7043C3.95765 12.0024 4.67407 11.3853 5.62892 10.9185ZM2.41462 13.3508C2.41449 13.3508 2.41474 13.3495 2.41574 13.3467C2.41526 13.3495 2.41475 13.3508 2.41462 13.3508ZM2.41574 13.3199C2.41474 13.3172 2.41449 13.3159 2.41462 13.3159C2.41475 13.3158 2.41526 13.3172 2.41574 13.3199Z" fill="#0F0F0F"/>
<path fill-rule="evenodd" clip-rule="evenodd" d="M16.6627 13.8797C16.6242 14.517 16.303 15.1139 15.7675 15.632C16.3699 15.5399 16.9218 15.396 17.3914 15.2082C17.8207 15.0365 18.2185 14.8132 18.5212 14.527C18.8254 14.2392 19.0833 13.8361 19.0833 13.3333C19.0833 12.8305 18.8254 12.4274 18.5212 12.1397C18.2185 11.8534 17.8207 11.6302 17.3914 11.4585C16.577 11.1327 15.5151 10.9392 14.3711 10.9185C15.3259 11.3853 16.0424 12.0024 16.404 12.7043C16.5589 12.7493 16.7028 12.7986 16.8343 12.8512C17.159 12.9811 17.3715 13.117 17.4905 13.2295C17.5434 13.2796 17.5675 13.3142 17.578 13.3333C17.5675 13.3524 17.5434 13.3871 17.4905 13.4372C17.3715 13.5497 17.159 13.6856 16.8343 13.8155C16.7793 13.8375 16.722 13.859 16.6627 13.8797ZM17.5854 13.3508C17.5853 13.3508 17.5848 13.3495 17.5843 13.3467C17.5853 13.3495 17.5855 13.3508 17.5854 13.3508ZM17.5843 13.3199C17.5848 13.3172 17.5853 13.3159 17.5854 13.3159C17.5855 13.3159 17.5853 13.3172 17.5843 13.3199Z" fill="#0F0F0F"/>
<path fill-rule="evenodd" clip-rule="evenodd" d="M13.8143 8.34646C13.6079 8.81447 13.3178 9.23732 12.9631 9.59608C13.3175 9.80002 13.7285 9.91667 14.1668 9.91667C15.5014 9.91667 16.5834 8.83469 16.5834 7.5C16.5834 6.16531 15.5014 5.08333 14.1668 5.08333C14.0639 5.08333 13.9626 5.08976 13.8631 5.10223C14.0491 5.56096 14.1557 6.06034 14.1659 6.58333C14.1662 6.58333 14.1665 6.58333 14.1668 6.58333C14.673 6.58333 15.0834 6.99374 15.0834 7.5C15.0834 8.00626 14.673 8.41667 14.1668 8.41667C14.0419 8.41667 13.9228 8.39169 13.8143 8.34646Z" fill="#0F0F0F"/>
<path fill-rule="evenodd" clip-rule="evenodd" d="M6.13707 5.10223C6.03761 5.08976 5.93626 5.08333 5.83341 5.08333C4.49873 5.08333 3.41675 6.16531 3.41675 7.5C3.41675 8.83469 4.49873 9.91667 5.83341 9.91667C6.27165 9.91667 6.68264 9.80002 7.03703 9.59608C6.68232 9.23732 6.39229 8.81447 6.18588 8.34646C6.07737 8.39169 5.95831 8.41667 5.83341 8.41667C5.32715 8.41667 4.91675 8.00626 4.91675 7.5C4.91675 6.99374 5.32715 6.58333 5.83341 6.58333C5.83369 6.58333 5.83396 6.58333 5.83423 6.58333C5.84449 6.06034 5.95111 5.56096 6.13707 5.10223Z" fill="#0F0F0F"/>
</svg>
