<svg width="20" height="20" viewBox="0 0 20 20" fill="none" xmlns="http://www.w3.org/2000/svg">
<path d="M2.33667 12.8975C2.33667 12.8975 2.455 14.3458 2.4825 14.8025C2.51917 15.415 2.75584 16.0992 3.15084 16.5742C3.70834 17.2475 4.365 17.485 5.24167 17.4867C6.2725 17.4883 13.7683 17.4883 14.7992 17.4867C15.6758 17.485 16.3325 17.2475 16.89 16.5742C17.285 16.0992 17.5217 15.415 17.5592 14.8025C17.5858 14.3458 17.7042 12.8975 17.7042 12.8975" stroke="#0F0F0F" stroke-width="1.5" stroke-linecap="round" stroke-linejoin="round"/>
<path d="M7.07983 4.44125V4.13208C7.07983 3.11542 7.90317 2.29208 8.91983 2.29208H11.0715C12.0873 2.29208 12.9115 3.11542 12.9115 4.13208L12.9123 4.44125" stroke="#0F0F0F" stroke-width="1.5" stroke-linecap="round" stroke-linejoin="round"/>
<path d="M9.99577 13.8985V12.8202" stroke="#0F0F0F" stroke-width="1.5" stroke-linecap="round" stroke-linejoin="round"/>
<path fill-rule="evenodd" clip-rule="evenodd" d="M2.2915 6.99092V9.88008C3.88984 10.9343 5.80484 11.6726 7.9065 11.9651C8.15817 11.0476 8.98567 10.3751 9.9915 10.3751C10.9815 10.3751 11.8257 11.0476 12.0607 11.9734C14.1707 11.6809 16.0932 10.9426 17.6998 9.88008V6.99092C17.6998 5.57925 16.564 4.44258 15.1523 4.44258H4.84734C3.43567 4.44258 2.2915 5.57925 2.2915 6.99092Z" stroke="#0F0F0F" stroke-width="1.5" stroke-linecap="round" stroke-linejoin="round"/>
</svg>
