<svg width="20" height="20" viewBox="0 0 20 20" fill="none" xmlns="http://www.w3.org/2000/svg">
<path d="M15.0001 12.5V17.5M4.16675 6.87887C5.22156 7.04222 6.39823 7.31381 7.50008 7.7399M4.16675 10.2122C4.69966 10.2947 5.26366 10.4049 5.83341 10.5486M10.0001 5.04447V17.5C9.80046 17.5 9.60083 17.4404 9.43077 17.3212C7.66102 16.0811 5.17734 15.5192 3.32869 15.3103C2.41377 15.2069 1.66675 14.4426 1.66675 13.5V4.11265C1.66675 3.17002 2.41377 2.40601 3.32869 2.50939C5.17734 2.71829 7.66102 3.28027 9.43077 4.52037C9.7709 4.75871 10.2293 4.75871 10.5694 4.52037C12.3391 3.28027 14.8228 2.71829 16.6715 2.50939C17.5864 2.40601 18.3334 3.17002 18.3334 4.11265V11.6667M17.5001 15H12.5001" stroke="#0F0F0F" stroke-width="1.5" stroke-linecap="round" stroke-linejoin="round"/>
</svg>
