<svg width="20" height="20" viewBox="0 0 20 20" fill="none" xmlns="http://www.w3.org/2000/svg">
<path d="M10.0002 8.6457V17.8812M8.3335 4.6126C8.82378 4.32899 9.39302 4.16666 10.0002 4.16666C10.6073 4.16666 11.1765 4.32899 11.6668 4.6126M6.66683 2.71224C7.61169 2.05318 8.76079 1.66666 10.0002 1.66666C11.2395 1.66666 12.3886 2.05318 13.3335 2.71224M4.66305 6.67397C6.14197 6.83644 8.12892 7.27354 9.54471 8.23806C9.81682 8.42344 10.1835 8.42344 10.4556 8.23806C11.8714 7.27354 13.8584 6.83644 15.3373 6.67397C16.0692 6.59356 16.6668 7.18779 16.6668 7.92095V15.2222C16.6668 15.9553 16.0692 16.5498 15.3373 16.6302C13.8584 16.7927 11.8714 17.2298 10.4556 18.1943C10.1835 18.3797 9.81682 18.3797 9.54471 18.1943C8.12892 17.2298 6.14197 16.7927 4.66305 16.6302C3.93111 16.5498 3.3335 15.9553 3.3335 15.2222V7.92095C3.3335 7.18779 3.93111 6.59356 4.66305 6.67397Z" stroke="#0F0F0F" stroke-width="1.5" stroke-linecap="round"/>
</svg>
