<svg width="35" height="32" viewBox="0 0 35 32" fill="none" xmlns="http://www.w3.org/2000/svg">
<path fill-rule="evenodd" clip-rule="evenodd" d="M18.3569 1.73472L22.2169 9.49972C22.4103 9.89138 22.7836 10.1647 23.2169 10.228L31.8586 11.4764C32.2086 11.523 32.5236 11.7064 32.7386 11.9864C33.1419 12.5114 33.0803 13.2547 32.5969 13.7064L26.3336 19.7631C26.0153 20.0631 25.8736 20.503 25.9569 20.9314L27.4569 29.478C27.5619 30.1864 27.0786 30.8497 26.3703 30.9647C26.0769 31.0097 25.7769 30.963 25.5103 30.8314L17.8136 26.7964C17.4269 26.5864 16.9636 26.5864 16.5769 26.7964L8.82359 30.8531C8.17526 31.1831 7.38192 30.9381 7.02859 30.3031C6.89359 30.0464 6.84692 29.7547 6.89359 29.4697L8.39359 20.923C8.46859 20.4964 8.32692 20.058 8.01692 19.7564L1.72026 13.7014C1.20692 13.1914 1.20359 12.3614 1.71526 11.848C1.71692 11.8464 1.71859 11.8431 1.72026 11.8414C1.93192 11.6497 2.19192 11.5214 2.47359 11.4714L11.1169 10.2231C11.5486 10.1547 11.9203 9.88472 12.1169 9.49305L15.9736 1.73472C16.1286 1.41972 16.4036 1.17805 16.7369 1.06805C17.0719 0.956384 17.4386 0.98305 17.7536 1.14138C18.0119 1.26972 18.2236 1.47805 18.3569 1.73472Z" stroke="#9C9C9C" stroke-width="2" stroke-linecap="round" stroke-linejoin="round"/>
</svg>
