<svg width="32" height="32" viewBox="0 0 32 32" fill="none" xmlns="http://www.w3.org/2000/svg">
<rect width="32" height="32" rx="12" fill="#0DBD8B"/>
<g clip-path="url(#clip0_337_761)">
<path fill-rule="evenodd" clip-rule="evenodd" d="M13.7604 8.96C13.7604 8.42981 14.1902 8 14.7204 8C18.2551 8 21.1204 10.8654 21.1204 14.4C21.1204 14.9302 20.6906 15.36 20.1604 15.36C19.6302 15.36 19.2004 14.9302 19.2004 14.4C19.2004 11.9257 17.1947 9.92 14.7204 9.92C14.1902 9.92 13.7604 9.49019 13.7604 8.96Z" fill="white"/>
<path fill-rule="evenodd" clip-rule="evenodd" d="M18.2396 23.04C18.2396 23.5702 17.8098 24 17.2796 24C13.745 24 10.8796 21.1347 10.8796 17.6C10.8796 17.0698 11.3094 16.64 11.8396 16.64C12.3698 16.64 12.7996 17.0698 12.7996 17.6C12.7996 20.0742 14.8054 22.08 17.2796 22.08C17.8098 22.08 18.2396 22.5098 18.2396 23.04Z" fill="white"/>
<path fill-rule="evenodd" clip-rule="evenodd" d="M8.96 18.24C8.42981 18.24 8 17.8102 8 17.28C8 13.7454 10.8654 10.88 14.4 10.88C14.9302 10.88 15.36 11.3098 15.36 11.84C15.36 12.3702 14.9302 12.8 14.4 12.8C11.9258 12.8 9.92 14.8058 9.92 17.28C9.92 17.8102 9.49019 18.24 8.96 18.24Z" fill="white"/>
<path fill-rule="evenodd" clip-rule="evenodd" d="M23.04 13.7599C23.5702 13.7599 24 14.1898 24 14.7199C24 18.2546 21.1346 21.1199 17.6 21.1199C17.0698 21.1199 16.64 20.6901 16.64 20.1599C16.64 19.6298 17.0698 19.1999 17.6 19.1999C20.0742 19.1999 22.08 17.1942 22.08 14.7199C22.08 14.1898 22.5098 13.7599 23.04 13.7599Z" fill="white"/>
</g>
<defs>
<clipPath id="clip0_337_761">
<rect width="16" height="16" fill="white" transform="translate(8 8)"/>
</clipPath>
</defs>
</svg>
