<svg width="34" height="34" viewBox="0 0 34 34" fill="none" xmlns="http://www.w3.org/2000/svg">
<rect x="0.5" y="0.5" width="33" height="33" rx="12.5" fill="white"/>
<path d="M17.016 8.99982C12.368 8.99982 8.99995 12.7918 8.99995 16.9998C8.99995 18.3438 9.39195 19.7278 10.08 20.9918C10.208 21.1998 10.224 21.4638 10.136 21.7118L9.59995 23.5038C9.47995 23.9358 9.84795 24.2558 10.256 24.1278L11.872 23.6478C12.312 23.5038 12.656 23.6878 13.0648 23.9358C14.2328 24.6238 15.688 24.9758 17 24.9758C20.968 24.9758 25 21.9118 25 16.9758C25 12.7198 21.56 8.99982 17.016 8.99982" stroke="#FF6633"/>
<path fill-rule="evenodd" clip-rule="evenodd" d="M19.6482 17.0076C19.6482 17.5676 20.1042 18.0316 20.6722 18.0316C21.2402 18.0316 21.6962 17.5676 21.6962 17.0076C21.6962 16.4396 21.2402 15.9836 20.6722 15.9836C20.1042 15.9836 19.6482 16.4396 19.6482 17.0076ZM16.9844 18.0317C16.4164 18.0237 15.9604 17.5677 15.9604 16.9997C15.9604 16.4397 16.4244 15.9757 16.9844 15.9837C17.5524 15.9837 18.0084 16.4397 18.0084 17.0077C18.0084 17.5677 17.5524 18.0317 16.9844 18.0317ZM13.296 18.0318C12.736 18.0318 12.272 17.5678 12.272 17.0078C12.272 16.4398 12.728 15.9838 13.296 15.9838C13.864 15.9838 14.32 16.4398 14.32 17.0078C14.32 17.5678 13.864 18.0238 13.296 18.0318Z" fill="#FF6633"/>
<rect x="0.5" y="0.5" width="33" height="33" rx="12.5" stroke="#373737"/>
</svg>
